<?xml version="1.0" encoding="utf-8"?>
<!-- Generator: Adobe Illustrator 23.0.2, SVG Export Plug-In . SVG Version: 6.00 Build 0)  -->
<svg version="1.1" id="Layer_1" xmlns="http://www.w3.org/2000/svg" xmlns:xlink="http://www.w3.org/1999/xlink" x="0px" y="0px"
	 viewBox="0 0 1125 1217.88" style="enable-background:new 0 0 1125 1217.88;" xml:space="preserve">
<style type="text/css">
	.st0{fill:none;stroke:#636466;stroke-width:0.5;stroke-miterlimit:10;}
	.st1{fill:#FFFFFF;}
	.st2{fill:none;stroke:#636466;stroke-miterlimit:10;}
	.st3{fill:#999999;}
	.st4{fill:#808080;}
	.st5{fill:#666666;}
	.st6{fill:#4D4D4D;}
	.st7{fill:#333333;}
	.st8{fill:#1A1A1A;}
	.st9{opacity:0.4;fill:#333333;}
	.st10{opacity:0.6;fill:#FFFFFF;}
</style>
<line class="st2" x1="0" y1="-0.3" x2="1125" y2="-0.3"/>
<line class="st2" x1="0" y1="1010.95" x2="1125" y2="1010.95"/>
<g id="_x32_CIV0p_2_">
	<g>
		<path class="st7" d="M312.49,177.48c-0.92,0.97-1.87,1.93-2.79,2.92c-3.77-1.15-7.95-1.59-11.24-3.52
			c-33.96-20.19-57.48-49.2-68.47-87.01c-3.61-12.41-1.38-26.51-1.82-39.84c-0.52-16.78-1.38-33.56-1.79-50.33h64.34
			c4.2,20.34,7.13,40.92,10.64,61.39c1.68,9.77,3.61,19.52,5.17,29.31c0.9,5.66,1.91,11.41,1.68,17.09
			c-0.12,3.33-2.58,6.57-3.98,9.88c-3.08-1.86-7.33-2.96-8.97-5.65c-5.51-9.15-9.86-18.99-15.19-28.26
			c-1.66-2.85-5.09-4.71-7.71-7.01c-1.7,3.49-5.45,7.47-4.76,10.41c6.17,26.31,10.4,53.51,32.82,72.75
			C305.68,164.14,308.53,171.46,312.49,177.48z"/>
		<path class="st7" d="M752.13-0.3c9.25,76.9,1.8,153.2-10.77,229.38c-5.84,35.45-15.86,70.33-20,105.93
			c-4.19,35.98-4.78,72.57-4.21,108.85c0.25,15.57,8.33,30.86,11.31,46.56c9.78,51.46,2.88,102.32-7.61,152.77
			c-10.69,51.44-26.81,101.29-46.35,150.08c-11.61,28.95-20.83,58.5-13.36,90.53c1.03,4.44-0.74,9.93-2.35,14.53
			c-3.84,11.04-0.73,19.75,8.33,26.24c10.55,7.58,21.75,14.3,32.37,21.79c8.4,5.94,19.41,12.35,16.19,23.92
			c-3.08,11.19-15.77,10.96-25.5,11.22c-24.9,0.6-49.83,0.55-74.73,0.16c-16.72-0.25-28.33-11.73-28.26-29.85
			c0.07-20.62,0.6-41.55,4.07-61.8c11.45-66.64,8.46-133.69,7.22-200.67c-0.32-17.08-3.31-34.17-5.54-51.21
			c-6.9-52.4-1.06-104.02,10.32-155.11c5.11-22.88,4.86-44.93-4.55-66.36c-10.48-23.85-10.09-49.34-12.09-74.39
			c-7.59-94.71-14.51-189.46-21.71-284.2c-0.11-1.49-0.46-2.96-2.83-4.62c-1.06,12.46-2.16,24.93-3.15,37.41
			c-7.7,97.77-15.15,195.54-23.31,293.29c-0.92,11.19-4.76,22.37-8.69,33.04c-7.98,21.52-9.04,42.9-4.12,65.39
			c12.09,55.3,18.58,111.02,8.42,167.58c-2.3,12.71-3.68,25.82-3.55,38.72c0.72,57.81,1.43,115.61,3.59,173.37
			c1.04,27.85,6.49,55.53,7.8,83.38c1.24,26.05-10.05,36.12-35.92,36.17c-20.69,0.02-41.39,0.04-62.08-0.03
			c-3.84,0-8.12,0.6-11.38-0.85c-6.93-3.1-13.32-7.36-19.94-11.15c3.93-6.64,6.53-14.88,12.12-19.59
			c10.14-8.58,22.26-14.83,33.2-22.53c14.26-10.03,15.77-15.23,11.38-32.17c-1.03-4-2.3-8.58-1.4-12.4
			c7.33-30.78-1.27-59.36-12.37-87.26c-24.33-61-43.9-123.31-53.74-188.36c-7.82-51.55-10.55-102.92,8.97-153
			c2.02-5.17,1.98-11.31,2.09-17.01c1.11-53-4.39-104.9-15.72-157.14c-16.95-78.18-29.6-157.88-23.69-238.26
			c1.04-14.14,2.45-28.25,4.09-42.35H752.13z"/>
		<path class="st7" d="M873.16,135.17c-12.83,15.22-24.23,31.82-43.06,40.56c-4.28,1.98-8.86,3.27-13.29,4.88
			c-1.11-1.08-2.19-2.16-3.29-3.25c4.5-6.43,8.05-13.93,13.7-19.1c21.36-19.52,25.64-46.2,31.43-72.23c0.6-2.69-2.94-6.3-4.55-9.47
			c-2.67,2.19-6.25,3.84-7.84,6.62c-4.55,7.98-7.68,16.77-12.55,24.49c-2.56,4.05-7.55,6.55-11.45,9.75
			c-1.45-4.74-5.04-9.98-4.05-14.12c8.27-34.05,4.26-70.05,16.49-103.6h63.86c-0.78,16.34-1.82,32.71-0.24,48.81
			C901.54,81.32,894.41,109.92,873.16,135.17z"/>
	</g>
</g>
<polyline class="st2" points="1125,-0.3 898.56,-0.3 834.7,-0.3 752.13,-0.3 374.68,-0.3 290.72,-0.3 226.38,-0.3 0,-0.3 "/>
<circle class="st7" cx="109" cy="1114.95" r="71"/>
<circle class="st7" cx="564" cy="1114.95" r="71"/>
<circle class="st7" cx="1012" cy="1114.95" r="71"/>
<g>
	<circle class="st1" cx="109" cy="1114.95" r="32"/>
	<circle class="st1" cx="133" cy="1090.95" r="15"/>
</g>
<g>
	<path class="st1" d="M998.17,1113.73H991c-6.6,0-12-5.4-12-12v-7.17c0-6.6,5.4-12,12-12h7.17c6.6,0,12,5.4,12,12v7.17
		C1010.17,1108.33,1004.77,1113.73,998.17,1113.73z"/>
	<path class="st1" d="M998.17,1147.34H991c-6.6,0-12-5.4-12-12v-7.17c0-6.6,5.4-12,12-12h7.17c6.6,0,12,5.4,12,12v7.17
		C1010.17,1141.94,1004.77,1147.34,998.17,1147.34z"/>
	<path class="st1" d="M1033,1113.73h-7.17c-6.6,0-12-5.4-12-12v-7.17c0-6.6,5.4-12,12-12h7.17c6.6,0,12,5.4,12,12v7.17
		C1045,1108.33,1039.6,1113.73,1033,1113.73z"/>
	<path class="st1" d="M1033,1147.34h-7.17c-6.6,0-12-5.4-12-12v-7.17c0-6.6,5.4-12,12-12h7.17c6.6,0,12,5.4,12,12v7.17
		C1045,1141.94,1039.6,1147.34,1033,1147.34z"/>
</g>
<g>
	<path class="st1" d="M584.1,1114.11h-56.46c-6.4,0-11.64-5.24-11.64-11.64v-3.58c0-6.4,5.24-11.64,11.64-11.64h56.46
		c6.4,0,11.64,5.24,11.64,11.64v3.58C595.73,1108.87,590.5,1114.11,584.1,1114.11z"/>
	<path class="st1" d="M598.36,1142.65H541.9c-6.4,0-11.64-5.24-11.64-11.64v-3.58c0-6.4,5.24-11.64,11.64-11.64h56.46
		c6.4,0,11.64,5.24,11.64,11.64v3.58C610,1137.41,604.76,1142.65,598.36,1142.65z"/>
</g>
</svg>
