<?xml version="1.0" encoding="utf-8"?>
<!-- Generator: Adobe Illustrator 23.0.2, SVG Export Plug-In . SVG Version: 6.00 Build 0)  -->
<svg version="1.1" id="Layer_1" xmlns="http://www.w3.org/2000/svg" xmlns:xlink="http://www.w3.org/1999/xlink" x="0px" y="0px"
	 viewBox="0 0 1125 1217.88" style="enable-background:new 0 0 1125 1217.88;" xml:space="preserve">
<style type="text/css">
	.st0{fill:none;stroke:#636466;stroke-width:0.5;stroke-miterlimit:10;}
	.st1{fill:#FFFFFF;}
	.st2{fill:none;stroke:#636466;stroke-miterlimit:10;}
	.st3{fill:#999999;}
	.st4{fill:#808080;}
	.st5{fill:#666666;}
	.st6{fill:#4D4D4D;}
	.st7{fill:#333333;}
	.st8{fill:#1A1A1A;}
	.st9{opacity:0.4;fill:#333333;}
	.st10{opacity:0.6;fill:#FFFFFF;}
</style>
<polyline class="st2" points="1125,1217.7 898.56,1217.7 834.7,1217.7 752.13,1217.7 374.68,1217.7 290.72,1217.7 226.38,1217.7 
	0,1217.7 "/>
<line class="st2" x1="0" y1="206.45" x2="1125" y2="206.45"/>
<g>
	<path d="M439.46,165.61V133.9h4.47l10.16,16.05c2.35,3.72,4.19,7.06,5.69,10.31l0.09-0.05c-0.38-4.24-0.47-8.09-0.47-13.04V133.9
		h3.86v31.72h-4.14l-10.07-16.09c-2.21-3.53-4.33-7.15-5.93-10.59l-0.14,0.05c0.23,4,0.33,7.81,0.33,13.08v13.55H439.46z"/>
	<path d="M475.56,155.64l-3.29,9.98h-4.24l10.78-31.72h4.94l10.82,31.72h-4.38l-3.39-9.98H475.56z M485.96,152.44l-3.11-9.13
		c-0.71-2.07-1.18-3.95-1.65-5.79h-0.09c-0.47,1.88-0.99,3.81-1.6,5.74l-3.11,9.18H485.96z"/>
	<path d="M525.77,151.68c-0.23-4.42-0.52-9.74-0.47-13.69h-0.14c-1.08,3.72-2.4,7.67-4,12.05l-5.6,15.39h-3.11l-5.13-15.11
		c-1.51-4.47-2.78-8.56-3.67-12.33h-0.09c-0.09,3.95-0.33,9.27-0.61,14.02l-0.85,13.6h-3.91l2.21-31.72h5.22l5.41,15.34
		c1.32,3.91,2.4,7.39,3.2,10.68h0.14c0.8-3.2,1.93-6.68,3.34-10.68l5.65-15.34h5.22l1.98,31.72h-4L525.77,151.68z"/>
	<path d="M553.3,150.74h-12.33v11.44h13.74v3.44h-17.83V133.9h17.13v3.44h-13.04v10.02h12.33V150.74z"/>
	<path d="M556.41,167.5l13.13-34.12h3.2l-13.18,34.12H556.41z"/>
	<path d="M576.17,133.9h4.09v28.28h13.55v3.44h-17.65V133.9z"/>
	<path d="M623.66,149.43c0,10.92-6.63,16.71-14.73,16.71c-8.38,0-14.26-6.49-14.26-16.09c0-10.07,6.26-16.66,14.73-16.66
		C618.06,133.38,623.66,140.01,623.66,149.43z M599.04,149.94c0,6.78,3.67,12.85,10.12,12.85c6.49,0,10.16-5.98,10.16-13.18
		c0-6.31-3.29-12.89-10.12-12.89C602.43,136.72,599.04,142.98,599.04,149.94z"/>
	<path d="M653.12,164.2c-1.84,0.66-5.46,1.74-9.74,1.74c-4.8,0-8.75-1.22-11.86-4.19c-2.73-2.64-4.42-6.87-4.42-11.81
		c0.05-9.46,6.54-16.38,17.18-16.38c3.67,0,6.54,0.8,7.91,1.46l-0.99,3.34c-1.69-0.75-3.81-1.36-7.01-1.36
		c-7.72,0-12.75,4.8-12.75,12.75c0,8.05,4.85,12.8,12.24,12.8c2.68,0,4.52-0.38,5.46-0.85v-9.46h-6.45v-3.29h10.45V164.2z"/>
	<path d="M686.48,149.43c0,10.92-6.64,16.71-14.73,16.71c-8.38,0-14.26-6.49-14.26-16.09c0-10.07,6.26-16.66,14.73-16.66
		C680.88,133.38,686.48,140.01,686.48,149.43z M661.87,149.94c0,6.78,3.67,12.85,10.12,12.85c6.49,0,10.17-5.98,10.17-13.18
		c0-6.31-3.29-12.89-10.12-12.89C665.26,136.72,661.87,142.98,661.87,149.94z"/>
</g>
<g id="_x32_CIV0p_8_">
	<g>
		<path class="st5" d="M899.12,1202.33c-0.1,5.12-0.32,10.24-0.56,15.37H834.7c0.3-0.84,0.61-1.68,0.94-2.51
			c2.96-7.61,1.79-18.31-0.94-26.42c-20.68-61.74-41.83-123.41-51.42-188.02c-3.45-23.16-1.52-47.12-2-70.71
			c-0.05-1.88,0.58-3.98,0-5.65c-10.83-32.19-21.82-64.32-35-96.42c-3.38,26.91-8.27,53.74-9.79,80.76
			c-2.85,51.18-6.42,102.57-4.65,153.71c1.48,42.29,8.67,84.57,16.03,126.4c1.7,9.63,3.11,19.25,4.26,28.86H374.68
			c5.6-48.23,13.8-96.26,18.35-144.61c3.41-36.43,2.97-73.47,1.15-110.07c-2.3-46.61-7.75-93.06-14.55-139.9
			c-0.97,2.07-2.16,4.1-2.9,6.26c-9.91,29.38-19.93,58.7-29.43,88.2c-1.66,5.15-1.91,11.17-1.2,16.6
			c4.12,30.95,0.3,61.51-7.61,91.08c-14.64,54.66-31.06,108.85-47.53,163c-3.1,10.16-2.39,19.04-0.34,28.97
			c0.03,0.16,0.06,0.31,0.1,0.47h-64.34c-0.17-6.89-0.26-13.77-0.23-20.66c0.09-17.93,2.34-35.87,3.17-53.8
			c1.7-36.33,2.6-72.68,4.71-108.97c2-33.84,10.07-66.52,21.36-98.46c1.82-5.17,2.63-11.12,2.28-16.6
			c-3.56-55.89,5.36-109.88,23.29-162.7c2.65-7.77,4.1-16.3,4.26-24.51c0.62-32.28,2.76-64.29,13.06-95.22
			c14.97-44.97,42.4-76.38,91.35-85.4c9.54-1.77,18.99-6.18,27.43-11.19c22.4-13.25,44.01-27.83,66.32-41.23
			c11.86-7.13,14.67-19.09,18.44-30.61c0.59-1.77-2.63-4.69-3.94-7.15c-4.55-8.64-9.47-17.1-13.4-25.98
			c-4.02-9.04-7.7-18.33-10.32-27.85c-3.34-12.04-10.79-26.46-7.09-36.3c9.04-23.92,1.45-47.44,4.14-70.85
			c1.57-13.79,6.53-25.91,16.7-35.61c40.17-38.24,106.69-38.06,146.21,0.53c10.62,10.39,15.8,23.45,16.17,38.17
			c0.25,10.71-0.19,21.45-0.53,32.19c-0.35,10.04-2.65,19.63,4.02,29.57c3.31,4.94,2.05,14.48,0.09,21.15
			c-5.98,20.49-12.69,40.79-20.37,60.7c-2.76,7.15-9.06,12.97-14.12,19.92c3.84,16.25,12.95,28.94,29.2,37.54
			c20.61,10.93,39.92,24.29,60.29,35.64c9.57,5.34,20.03,10.31,30.68,12.28c37.91,7.04,63.21,29.37,79.65,62.91
			c17.1,34.91,20.32,72.59,21.84,110.72c0.46,11.98,2.32,24.3,5.98,35.68c16.83,52.36,25.48,105.61,21.08,160.71
			c-0.29,3.63,0.33,7.65,1.61,11.1c18.68,50.24,25.27,102.05,24.01,155.62c-0.69,30.1,3.93,60.34,5.84,90.53
			C900.04,1187.11,899.26,1194.75,899.12,1202.33z"/>
	</g>
</g>
<polyline class="st2" points="0,1217.7 226.38,1217.7 290.72,1217.7 374.68,1217.7 752.13,1217.7 834.7,1217.7 898.56,1217.7 
	1125,1217.7 "/>
</svg>
