<?xml version="1.0" encoding="utf-8"?>
<!-- Generator: Adobe Illustrator 23.0.2, SVG Export Plug-In . SVG Version: 6.00 Build 0)  -->
<svg version="1.1" id="Layer_1" xmlns="http://www.w3.org/2000/svg" xmlns:xlink="http://www.w3.org/1999/xlink" x="0px" y="0px"
	 viewBox="0 0 1125 2435.98" style="enable-background:new 0 0 1125 2435.98;" xml:space="preserve">
<style type="text/css">
	.st0{fill:none;stroke:#636466;stroke-miterlimit:10;}
	.st1{fill:#999999;}
	.st2{fill:#808080;}
	.st3{fill:#666666;}
	.st4{fill:#4D4D4D;}
	.st5{fill:#333333;}
	.st6{fill:#1A1A1A;}
</style>
<line class="st0" x1="0" y1="1217.75" x2="1125" y2="1217.75"/>
<text transform="matrix(1 0 0 1 -476.1152 -2775.3359)" style="fill:#231F20; font-family:'MyriadPro-Regular'; font-size:47.0617px;">NAME/LOGO</text>
<g id="_x32_CIV0p_1_">
	<g>
		<path d="M1807.14-1393.76c-0.19,9.31-1.25,18.71-0.35,27.91c1.4,14.27-1.7,26.71-10.94,37.69c-5.58,6.62-10.54,13.84-18.73,17.64
			c-1.86,0.86-3.85,1.42-5.78,2.12c-0.48-0.47-0.95-0.94-1.43-1.41c1.96-2.8,3.5-6.06,5.96-8.31c9.29-8.49,11.15-20.09,13.67-31.41
			c0.26-1.17-1.28-2.74-1.98-4.12c-1.16,0.95-2.72,1.67-3.41,2.88c-1.98,3.47-3.34,7.29-5.46,10.65c-1.11,1.76-3.28,2.85-4.98,4.24
			c-0.63-2.06-2.19-4.34-1.76-6.14c3.69-15.18,1.76-31.25,7.58-46.15c1.29-3.31,0.78-7.96-0.41-11.49
			c-8.99-26.85-18.19-53.67-22.36-81.77c-1.5-10.07-0.66-20.49-0.87-30.75c-0.02-0.82,0.25-1.73,0-2.46
			c-4.71-14-9.49-27.97-15.22-41.93c-1.47,11.7-3.6,23.37-4.26,35.12c-1.24,22.26-2.79,44.61-2.02,66.85
			c0.64,18.39,3.77,36.78,6.97,54.97c6.65,37.7,3.32,75.04-2.83,112.31c-2.54,15.42-6.9,30.59-8.7,46.07
			c-1.82,15.65-2.08,31.56-1.83,47.34c0.11,6.77,3.62,13.42,4.92,20.25c4.25,22.38,1.25,44.5-3.31,66.44
			c-4.65,22.37-11.66,44.05-20.16,65.27c-5.05,12.59-9.06,25.44-5.81,39.37c0.45,1.93-0.32,4.32-1.02,6.32
			c-1.67,4.8-0.32,8.59,3.62,11.41c4.59,3.3,9.46,6.22,14.08,9.48c3.65,2.58,8.44,5.37,7.04,10.4c-1.34,4.87-6.86,4.77-11.09,4.88
			c-10.83,0.26-21.67,0.24-32.5,0.07c-7.27-0.11-12.32-5.1-12.29-12.98c0.03-8.97,0.26-18.07,1.77-26.88
			c4.98-28.98,3.68-58.14,3.14-87.27c-0.14-7.43-1.44-14.86-2.41-22.27c-3-22.79-0.46-45.24,4.49-67.46
			c2.22-9.95,2.11-19.54-1.98-28.86c-4.56-10.37-4.39-21.46-5.26-32.35c-3.3-41.19-6.31-82.4-9.44-123.6
			c-0.05-0.65-0.2-1.29-1.23-2.01c-0.46,5.42-0.94,10.84-1.37,16.27c-3.35,42.52-6.59,85.04-10.14,127.55
			c-0.4,4.87-2.07,9.73-3.78,14.37c-3.47,9.36-3.93,18.66-1.79,28.44c5.26,24.05,8.08,48.28,3.66,72.88
			c-1,5.53-1.6,11.23-1.54,16.84c0.31,25.14,0.62,50.28,1.56,75.4c0.45,12.11,2.82,24.15,3.39,36.26
			c0.54,11.33-4.37,15.71-15.62,15.73c-9,0.01-18,0.02-27-0.01c-1.67,0-3.53,0.26-4.95-0.37c-3.01-1.35-5.79-3.2-8.67-4.85
			c1.71-2.89,2.84-6.47,5.27-8.52c4.41-3.73,9.68-6.45,14.44-9.8c6.2-4.36,6.86-6.62,4.95-13.99c-0.45-1.74-1-3.73-0.61-5.39
			c3.19-13.39-0.55-25.82-5.38-37.95c-10.58-26.53-19.09-53.63-23.37-81.92c-3.4-22.42-4.59-44.76,3.9-66.54
			c0.88-2.25,0.86-4.92,0.91-7.4c0.48-23.05-1.91-45.62-6.84-68.34c-7.37-34-12.87-68.66-10.3-103.62
			c1.99-27.2,7.2-54.14,9.76-81.31c1.48-15.84,1.29-31.95,0.5-47.87c-1-20.27-3.37-40.47-6.33-60.84c-0.42,0.9-0.94,1.78-1.26,2.72
			c-4.31,12.78-8.67,25.53-12.8,38.36c-0.72,2.24-0.83,4.86-0.52,7.22c1.79,13.46,0.13,26.75-3.31,39.61
			c-6.37,23.77-13.51,47.34-20.67,70.89c-1.35,4.42-1.04,8.28-0.15,12.6c1.85,8.91,3.13,17.93,4.67,26.9
			c0.73,4.25,1.57,8.49,2.25,12.75c0.39,2.46,0.83,4.96,0.73,7.43c-0.05,1.45-1.12,2.86-1.73,4.3c-1.34-0.81-3.19-1.29-3.9-2.46
			c-2.4-3.98-4.29-8.26-6.61-12.29c-0.72-1.24-2.21-2.05-3.35-3.05c-0.74,1.52-2.37,3.25-2.07,4.53
			c2.68,11.44,4.52,23.27,14.27,31.64c2.29,1.97,3.53,5.15,5.25,7.77c-0.4,0.42-0.81,0.84-1.21,1.27c-1.64-0.5-3.46-0.69-4.89-1.53
			c-14.77-8.78-25-21.4-29.78-37.84c-1.57-5.4-0.6-11.53-0.79-17.33c-0.32-10.29-0.93-20.58-0.88-30.87
			c0.04-7.8,1.02-15.6,1.38-23.4c0.74-15.8,1.13-31.61,2.05-47.39c0.87-14.72,4.38-28.93,9.29-42.82c0.79-2.25,1.14-4.84,0.99-7.22
			c-1.55-24.31,2.33-47.79,10.13-70.76c1.15-3.38,1.78-7.09,1.85-10.66c0.27-14.04,1.2-27.96,5.68-41.41
			c6.51-19.56,18.44-33.22,39.73-37.14c4.15-0.77,8.26-2.69,11.93-4.87c9.74-5.76,19.14-12.1,28.84-17.93
			c5.16-3.1,6.38-8.3,8.02-13.31c0.26-0.77-1.14-2.04-1.71-3.11c-1.98-3.76-4.12-7.44-5.83-11.3c-1.75-3.93-3.35-7.97-4.49-12.11
			c-1.45-5.24-4.69-11.51-3.08-15.79c3.93-10.4,0.63-20.63,1.8-30.81c0.68-6,2.84-11.27,7.26-15.49
			c17.47-16.63,46.4-16.55,63.59,0.23c4.62,4.52,6.87,10.2,7.03,16.6c0.11,4.66-0.08,9.33-0.23,14c-0.15,4.37-1.15,8.54,1.75,12.86
			c1.44,2.15,0.89,6.3,0.04,9.2c-2.6,8.91-5.52,17.74-8.86,26.4c-1.2,3.11-3.94,5.64-6.14,8.66c1.67,7.07,5.63,12.59,12.7,16.33
			c8.96,4.75,17.36,10.56,26.22,15.5c4.16,2.32,8.71,4.48,13.34,5.34c16.49,3.06,27.49,12.77,34.64,27.36
			c7.44,15.18,8.84,31.57,9.5,48.15c0.2,5.21,1.01,10.57,2.6,15.52c7.32,22.77,11.08,45.93,9.17,69.89
			c-0.13,1.58,0.14,3.33,0.7,4.83c8.12,21.85,10.99,44.38,10.44,67.68c-0.3,13.09,1.71,26.24,2.54,39.37
			C1807.54-1400.38,1807.2-1397.06,1807.14-1393.76z"/>
	</g>
</g>
<g id="_x32_CIV0p_3_">
	<g>
		<path d="M2697.12-1484.62c-0.44,21.41-2.87,43.02-0.8,64.18c3.22,32.81-3.91,61.42-25.16,86.66
			c-12.83,15.22-24.24,31.82-43.07,40.56c-4.28,1.98-8.85,3.26-13.29,4.87c-1.1-1.08-2.18-2.16-3.29-3.24
			c4.51-6.44,8.05-13.93,13.7-19.11c21.36-19.52,25.64-46.19,31.43-72.22c0.6-2.69-2.94-6.3-4.55-9.47
			c-2.67,2.18-6.25,3.84-7.84,6.62c-4.55,7.98-7.68,16.76-12.55,24.49c-2.55,4.05-7.54,6.55-11.45,9.75
			c-1.45-4.74-5.04-9.98-4.05-14.12c8.48-34.9,4.05-71.86,17.43-106.12c2.97-7.61,1.79-18.3-0.94-26.42
			c-20.67-61.74-41.83-123.41-51.41-188.02c-3.45-23.15-1.52-47.11-2-70.71c-0.05-1.89,0.57-3.98,0-5.66
			c-10.83-32.19-21.82-64.31-35-96.41c-3.38,26.9-8.28,53.74-9.8,80.75c-2.85,51.18-6.42,102.57-4.64,153.71
			c1.47,42.29,8.67,84.57,16.03,126.4c15.29,86.69,7.63,172.54-6.51,258.24c-5.84,35.46-15.87,70.34-20,105.93
			c-4.19,35.98-4.78,72.57-4.21,108.85c0.25,15.57,8.32,30.86,11.31,46.56c9.77,51.46,2.87,102.32-7.61,152.77
			c-10.69,51.44-26.81,101.29-46.36,150.08c-11.61,28.95-20.83,58.5-13.36,90.53c1.03,4.44-0.74,9.93-2.35,14.53
			c-3.84,11.04-0.74,19.75,8.32,26.24c10.55,7.59,21.75,14.3,32.38,21.8c8.39,5.93,19.41,12.35,16.19,23.91
			c-3.08,11.2-15.77,10.97-25.5,11.22c-24.9,0.6-49.83,0.55-74.73,0.16c-16.72-0.25-28.33-11.73-28.26-29.85
			c0.07-20.63,0.6-41.55,4.07-61.81c11.45-66.64,8.46-133.68,7.22-200.67c-0.32-17.08-3.31-34.17-5.54-51.21
			c-6.9-52.4-1.06-104.02,10.32-155.11c5.1-22.88,4.85-44.93-4.55-66.36c-10.49-23.84-10.09-49.34-12.09-74.38
			c-7.59-94.71-14.51-189.47-21.71-284.2c-0.11-1.49-0.46-2.97-2.83-4.62c-1.06,12.46-2.16,24.92-3.15,37.41
			c-7.7,97.77-15.15,195.54-23.32,293.28c-0.92,11.2-4.76,22.37-8.69,33.04c-7.98,21.52-9.04,42.91-4.12,65.39
			c12.09,55.3,18.58,111.01,8.42,167.58c-2.3,12.72-3.68,25.82-3.54,38.72c0.71,57.81,1.43,115.61,3.59,173.37
			c1.03,27.84,6.48,55.53,7.8,83.37c1.24,26.05-10.05,36.12-35.92,36.17c-20.69,0.02-41.39,0.05-62.08-0.02
			c-3.84,0-8.12,0.6-11.38-0.85c-6.92-3.1-13.31-7.36-19.94-11.15c3.93-6.65,6.53-14.88,12.12-19.59
			c10.14-8.58,22.26-14.83,33.2-22.53c14.26-10.03,15.77-15.22,11.38-32.17c-1.03-4-2.3-8.58-1.4-12.39
			c7.33-30.79-1.26-59.37-12.37-87.26c-24.33-61-43.89-123.31-53.74-188.36c-7.82-51.55-10.55-102.92,8.97-153
			c2.02-5.17,1.98-11.31,2.09-17.02c1.1-53-4.39-104.9-15.73-157.14c-16.95-78.18-29.59-157.87-23.68-238.26
			c4.58-62.54,16.56-124.49,22.44-186.96c3.4-36.42,2.97-73.46,1.15-110.07c-2.3-46.61-7.75-93.06-14.56-139.89
			c-0.97,2.07-2.16,4.09-2.9,6.25c-9.91,29.39-19.94,58.7-29.43,88.2c-1.66,5.15-1.91,11.18-1.2,16.6
			c4.12,30.95,0.3,61.51-7.61,91.08c-14.65,54.66-31.06,108.85-47.53,163c-3.1,10.16-2.39,19.04-0.34,28.97
			c4.25,20.49,7.2,41.23,10.74,61.85c1.68,9.77,3.61,19.52,5.17,29.32c0.9,5.66,1.91,11.4,1.68,17.08
			c-0.11,3.33-2.58,6.58-3.98,9.89c-3.08-1.86-7.33-2.97-8.97-5.66c-5.52-9.15-9.86-18.99-15.2-28.26c-1.66-2.85-5.08-4.71-7.7-7.01
			c-1.7,3.49-5.45,7.47-4.76,10.42c6.16,26.3,10.39,53.51,32.81,72.75c5.27,4.53,8.12,11.84,12.07,17.87
			c-0.92,0.97-1.86,1.93-2.78,2.92c-3.77-1.15-7.96-1.59-11.24-3.52c-33.96-20.19-57.48-49.21-68.47-87.01
			c-3.61-12.42-1.38-26.51-1.82-39.85c-0.74-23.66-2.14-47.32-2.02-70.98c0.09-17.93,2.35-35.87,3.17-53.8
			c1.7-36.33,2.6-72.68,4.71-108.97c2-33.85,10.07-66.52,21.36-98.46c1.82-5.17,2.62-11.13,2.28-16.6
			c-3.56-55.9,5.36-109.89,23.29-162.7c2.64-7.77,4.09-16.3,4.25-24.51c0.62-32.28,2.76-64.29,13.06-95.22
			c14.97-44.98,42.4-76.38,91.35-85.4c9.54-1.77,18.99-6.19,27.43-11.2c22.4-13.24,44.01-27.82,66.31-41.23
			c11.86-7.13,14.67-19.08,18.44-30.6c0.6-1.77-2.62-4.69-3.93-7.15c-4.55-8.65-9.47-17.11-13.41-25.98
			c-4.02-9.04-7.7-18.33-10.32-27.85c-3.33-12.05-10.78-26.47-7.08-36.31c9.04-23.91,1.45-47.44,4.14-70.84
			c1.56-13.8,6.53-25.91,16.69-35.62c40.17-38.24,106.69-38.05,146.22,0.53c10.62,10.39,15.8,23.45,16.16,38.17
			c0.25,10.71-0.18,21.45-0.53,32.19c-0.34,10.05-2.64,19.64,4.02,29.57c3.31,4.94,2.05,14.49,0.09,21.15
			c-5.98,20.49-12.69,40.79-20.37,60.7c-2.76,7.15-9.06,12.97-14.12,19.91c3.84,16.26,12.95,28.95,29.2,37.55
			c20.6,10.92,39.92,24.28,60.29,35.64c9.57,5.33,20.03,10.3,30.67,12.28c37.92,7.04,63.21,29.36,79.65,62.91
			c17.11,34.9,20.33,72.59,21.84,110.71c0.46,11.98,2.32,24.3,5.98,35.69c16.83,52.36,25.48,105.61,21.09,160.7
			c-0.3,3.63,0.32,7.66,1.61,11.11c18.67,50.24,25.27,102.05,24.01,155.62c-0.69,30.1,3.93,60.34,5.84,90.53
			C2698.04-1499.84,2697.26-1492.2,2697.12-1484.62z"/>
	</g>
</g>
<line class="st0" x1="0" y1="-2523.08" x2="1125" y2="-2523.08"/>
<line class="st0" x1="0" y1="-783.49" x2="1125" y2="-783.49"/>
<line class="st0" x1="0" y1="-1131.41" x2="1125" y2="-1131.41"/>
<line class="st0" x1="0" y1="-1479.33" x2="1125" y2="-1479.33"/>
<line class="st0" x1="0" y1="-1827.24" x2="1125" y2="-1827.24"/>
<line class="st0" x1="0" y1="-2175.16" x2="1125" y2="-2175.16"/>
<g>
	<path d="M439.46-2705.34v-31.72h4.47l10.16,16.05c2.35,3.72,4.19,7.06,5.69,10.31l0.09-0.05c-0.38-4.24-0.47-8.09-0.47-13.04
		v-13.27h3.86v31.72h-4.14l-10.07-16.09c-2.21-3.53-4.33-7.15-5.93-10.59l-0.14,0.05c0.23,4,0.33,7.81,0.33,13.08v13.55H439.46z"/>
	<path d="M475.56-2715.31l-3.29,9.98h-4.24l10.78-31.72h4.94l10.82,31.72h-4.38l-3.39-9.98H475.56z M485.96-2718.51l-3.11-9.13
		c-0.71-2.07-1.18-3.95-1.65-5.79h-0.09c-0.47,1.88-0.99,3.81-1.6,5.74l-3.11,9.18H485.96z"/>
	<path d="M525.77-2719.27c-0.23-4.42-0.52-9.74-0.47-13.69h-0.14c-1.08,3.72-2.4,7.67-4,12.05l-5.6,15.39h-3.11l-5.13-15.11
		c-1.51-4.47-2.78-8.56-3.67-12.33h-0.09c-0.09,3.95-0.33,9.27-0.61,14.02l-0.85,13.6h-3.91l2.21-31.72h5.22l5.41,15.34
		c1.32,3.91,2.4,7.39,3.2,10.68h0.14c0.8-3.2,1.93-6.68,3.34-10.68l5.65-15.34h5.22l1.98,31.72h-4L525.77-2719.27z"/>
	<path d="M553.3-2720.21h-12.33v11.44h13.74v3.44h-17.83v-31.72h17.13v3.44h-13.04v10.02h12.33V-2720.21z"/>
	<path d="M556.41-2703.45l13.13-34.12h3.2l-13.18,34.12H556.41z"/>
	<path d="M576.17-2737.05h4.09v28.28h13.55v3.44h-17.65V-2737.05z"/>
	<path d="M623.66-2721.52c0,10.92-6.63,16.71-14.73,16.71c-8.38,0-14.26-6.49-14.26-16.09c0-10.07,6.26-16.66,14.73-16.66
		C618.06-2737.57,623.66-2730.94,623.66-2721.52z M599.04-2721.01c0,6.78,3.67,12.85,10.12,12.85c6.49,0,10.16-5.98,10.16-13.18
		c0-6.31-3.29-12.89-10.12-12.89C602.43-2734.23,599.04-2727.97,599.04-2721.01z"/>
	<path d="M653.12-2706.75c-1.84,0.66-5.46,1.74-9.74,1.74c-4.8,0-8.75-1.22-11.86-4.19c-2.73-2.64-4.42-6.87-4.42-11.81
		c0.05-9.46,6.54-16.38,17.18-16.38c3.67,0,6.54,0.8,7.91,1.46l-0.99,3.34c-1.69-0.75-3.81-1.36-7.01-1.36
		c-7.72,0-12.75,4.8-12.75,12.75c0,8.05,4.85,12.8,12.24,12.8c2.68,0,4.52-0.38,5.46-0.85v-9.46h-6.45v-3.29h10.45V-2706.75z"/>
	<path d="M686.48-2721.52c0,10.92-6.64,16.71-14.73,16.71c-8.38,0-14.26-6.49-14.26-16.09c0-10.07,6.26-16.66,14.73-16.66
		C680.88-2737.57,686.48-2730.94,686.48-2721.52z M661.87-2721.01c0,6.78,3.67,12.85,10.12,12.85c6.49,0,10.17-5.98,10.17-13.18
		c0-6.31-3.29-12.89-10.12-12.89C665.26-2734.23,661.87-2727.97,661.87-2721.01z"/>
</g>
<g id="_x32_CIV0p_14_">
	<g>
		<path class="st1" d="M899.12-1484.62c-0.44,21.41-2.87,43.02-0.8,64.18c3.22,32.81-3.91,61.42-25.16,86.66
			c-12.83,15.22-24.24,31.82-43.07,40.56c-4.28,1.98-8.85,3.26-13.29,4.87c-1.1-1.08-2.18-2.16-3.29-3.24
			c4.51-6.44,8.05-13.93,13.7-19.11c21.36-19.52,25.64-46.19,31.43-72.22c0.6-2.69-2.94-6.3-4.55-9.47
			c-2.67,2.18-6.25,3.84-7.84,6.62c-4.55,7.98-7.68,16.76-12.55,24.49c-2.55,4.05-7.54,6.55-11.45,9.75
			c-1.45-4.74-5.04-9.98-4.05-14.12c8.48-34.9,4.05-71.86,17.43-106.12c2.97-7.61,1.79-18.3-0.94-26.42
			c-20.67-61.74-41.83-123.41-51.41-188.02c-3.45-23.15-1.52-47.11-2-70.71c-0.05-1.89,0.57-3.98,0-5.66
			c-10.83-32.19-21.82-64.31-35-96.41c-3.38,26.9-8.28,53.74-9.8,80.75c-2.85,51.18-6.42,102.57-4.64,153.71
			c1.47,42.29,8.67,84.57,16.03,126.4c15.29,86.69,7.63,172.54-6.51,258.24c-5.84,35.46-15.87,70.34-20,105.93
			c-4.18,35.98-4.78,72.57-4.21,108.85c0.25,15.57,8.32,30.86,11.31,46.56c9.77,51.46,2.87,102.32-7.61,152.77
			c-10.69,51.44-26.81,101.29-46.36,150.08c-11.61,28.95-20.83,58.5-13.36,90.53c1.03,4.44-0.74,9.93-2.35,14.53
			c-3.84,11.04-0.74,19.75,8.32,26.24c10.55,7.59,21.75,14.3,32.38,21.8c8.39,5.93,19.41,12.35,16.19,23.91
			c-3.08,11.2-15.77,10.97-25.5,11.22c-24.9,0.6-49.83,0.55-74.73,0.16c-16.72-0.25-28.33-11.73-28.26-29.85
			c0.07-20.63,0.6-41.55,4.07-61.81c11.45-66.64,8.46-133.68,7.22-200.67c-0.32-17.08-3.31-34.17-5.54-51.21
			c-6.9-52.4-1.06-104.02,10.32-155.11c5.1-22.88,4.85-44.93-4.55-66.36c-10.49-23.84-10.09-49.34-12.09-74.38
			c-7.59-94.71-14.51-189.47-21.71-284.2c-0.12-1.49-0.46-2.97-2.83-4.62c-1.06,12.46-2.16,24.92-3.15,37.41
			c-7.7,97.77-15.15,195.54-23.32,293.28c-0.92,11.2-4.76,22.37-8.69,33.04c-7.98,21.52-9.04,42.91-4.12,65.39
			c12.09,55.3,18.58,111.01,8.42,167.58c-2.3,12.72-3.68,25.82-3.54,38.72c0.71,57.81,1.43,115.61,3.59,173.37
			c1.03,27.84,6.48,55.53,7.8,83.37c1.24,26.05-10.05,36.12-35.92,36.17c-20.69,0.02-41.39,0.05-62.08-0.02
			c-3.84,0-8.12,0.6-11.38-0.85c-6.92-3.1-13.31-7.36-19.94-11.15c3.93-6.65,6.53-14.88,12.12-19.59
			c10.14-8.58,22.26-14.83,33.2-22.53c14.26-10.03,15.77-15.22,11.38-32.17c-1.03-4-2.3-8.58-1.4-12.39
			c7.34-30.79-1.26-59.37-12.37-87.26c-24.33-61-43.89-123.31-53.74-188.36c-7.82-51.55-10.55-102.92,8.97-153
			c2.02-5.17,1.98-11.31,2.09-17.02c1.1-53-4.39-104.9-15.73-157.14c-16.95-78.18-29.59-157.87-23.68-238.26
			c4.58-62.54,16.56-124.49,22.44-186.96c3.4-36.42,2.97-73.46,1.15-110.07c-2.3-46.61-7.75-93.06-14.56-139.89
			c-0.97,2.07-2.16,4.09-2.9,6.25c-9.91,29.39-19.94,58.7-29.43,88.2c-1.66,5.15-1.91,11.18-1.2,16.6
			c4.12,30.95,0.3,61.51-7.61,91.08c-14.65,54.66-31.06,108.85-47.53,163c-3.1,10.16-2.39,19.04-0.34,28.97
			c4.25,20.49,7.2,41.23,10.74,61.85c1.68,9.77,3.61,19.52,5.17,29.32c0.9,5.66,1.91,11.4,1.68,17.08
			c-0.12,3.33-2.58,6.58-3.98,9.89c-3.08-1.86-7.33-2.97-8.97-5.66c-5.52-9.15-9.86-18.99-15.2-28.26c-1.66-2.85-5.08-4.71-7.7-7.01
			c-1.7,3.49-5.45,7.47-4.76,10.42c6.16,26.3,10.39,53.51,32.81,72.75c5.27,4.53,8.12,11.84,12.07,17.87
			c-0.92,0.97-1.86,1.93-2.78,2.92c-3.77-1.15-7.96-1.59-11.24-3.52c-33.96-20.19-57.48-49.21-68.47-87.01
			c-3.61-12.42-1.38-26.51-1.82-39.85c-0.74-23.66-2.14-47.32-2.02-70.98c0.09-17.93,2.35-35.87,3.17-53.8
			c1.7-36.33,2.6-72.68,4.71-108.97c2-33.85,10.07-66.52,21.36-98.46c1.82-5.17,2.62-11.13,2.28-16.6
			c-3.56-55.9,5.36-109.89,23.29-162.7c2.64-7.77,4.09-16.3,4.25-24.51c0.62-32.28,2.76-64.29,13.06-95.22
			c14.97-44.98,42.4-76.38,91.35-85.4c9.54-1.77,18.99-6.19,27.43-11.2c22.4-13.24,44.01-27.82,66.31-41.23
			c11.86-7.13,14.67-19.08,18.44-30.6c0.6-1.77-2.62-4.69-3.93-7.15c-4.55-8.65-9.47-17.11-13.41-25.98
			c-4.02-9.04-7.7-18.33-10.32-27.85c-3.33-12.05-10.78-26.47-7.08-36.31c9.04-23.91,1.45-47.44,4.14-70.84
			c1.56-13.8,6.53-25.91,16.69-35.62c40.17-38.24,106.69-38.05,146.22,0.53c10.62,10.39,15.8,23.45,16.16,38.17
			c0.25,10.71-0.18,21.45-0.53,32.19c-0.34,10.05-2.64,19.64,4.02,29.57c3.31,4.94,2.05,14.49,0.09,21.15
			c-5.98,20.49-12.69,40.79-20.37,60.7c-2.76,7.15-9.06,12.97-14.12,19.91c3.84,16.26,12.95,28.95,29.2,37.55
			c20.6,10.92,39.92,24.28,60.29,35.64c9.57,5.33,20.03,10.3,30.67,12.28c37.92,7.04,63.21,29.36,79.65,62.91
			c17.11,34.9,20.33,72.59,21.84,110.71c0.46,11.98,2.32,24.3,5.98,35.69c16.83,52.36,25.48,105.61,21.09,160.7
			c-0.3,3.63,0.32,7.66,1.61,11.11c18.67,50.24,25.27,102.05,24.01,155.62c-0.69,30.1,3.93,60.34,5.84,90.53
			C900.04-1499.84,899.26-1492.2,899.12-1484.62z"/>
	</g>
</g>
<g id="_x32_CIV0p_13_">
	<g>
		<path class="st2" d="M522.81-986.37c12.09,55.3,18.58,111.02,8.42,167.58c-2.1,11.59-3.43,23.51-3.54,35.3H415.41
			c-6.87-25.61-12.47-51.58-16.47-78c-7.82-51.55-10.55-102.92,8.97-153c2.02-5.17,1.98-11.31,2.09-17.01
			c0.7-33.62-1.25-66.81-5.67-99.91h135.13c-1.26,15.54-2.54,31.07-3.84,46.61c-0.92,11.19-4.76,22.37-8.69,33.04
			C518.95-1030.24,517.89-1008.86,522.81-986.37z"/>
		<path class="st2" d="M720.85-825.76c-2.96,14.21-6.32,28.29-10.07,42.27H598.36c-0.65-15.79-3.36-31.58-5.42-47.33
			c-6.9-52.4-1.06-104.02,10.32-155.11c5.11-22.88,4.86-44.93-4.55-66.36c-10.48-23.85-10.09-49.34-12.09-74.39
			c-0.13-1.58-0.25-3.15-0.38-4.73h134.84c-3.94,35.17-4.49,70.89-3.93,106.32c0.25,15.57,8.33,30.86,11.31,46.56
			C738.24-927.07,731.34-876.21,720.85-825.76z"/>
	</g>
</g>
<g id="_x32_CIV0p_12_">
	<g>
		<path class="st3" d="M312.49-1291.47c-0.92,0.97-1.87,1.93-2.79,2.92c-3.77-1.15-7.95-1.59-11.24-3.52
			c-33.96-20.19-57.48-49.2-68.47-87.01c-3.61-12.41-1.38-26.51-1.82-39.84c-0.63-20.14-1.74-40.28-1.98-60.41h62.93
			c0.29,3.15,0.82,6.32,1.5,9.61c4.25,20.49,7.2,41.23,10.74,61.86c1.68,9.77,3.61,19.52,5.17,29.31c0.9,5.66,1.91,11.41,1.68,17.09
			c-0.12,3.33-2.58,6.57-3.98,9.88c-3.08-1.86-7.33-2.96-8.97-5.65c-5.51-9.15-9.86-18.99-15.19-28.26
			c-1.66-2.85-5.09-4.71-7.71-7.01c-1.7,3.49-5.45,7.47-4.76,10.41c6.17,26.31,10.4,53.51,32.82,72.75
			C305.68-1304.81,308.53-1297.49,312.49-1291.47z"/>
		<path class="st3" d="M741.36-1239.87c-5.84,35.45-15.86,70.33-20,105.93c-0.1,0.84-0.19,1.69-0.28,2.53H586.24
			c-7.44-93.13-14.25-186.31-21.33-279.47c-0.11-1.49-0.46-2.96-2.83-4.62c-1.06,12.46-2.16,24.93-3.15,37.41
			c-6.48,82.23-12.78,164.46-19.47,246.68H404.33c-2.55-19.08-5.91-38.13-10.05-57.23c-16.95-78.18-29.6-157.88-23.69-238.26
			c1.28-17.52,3.15-34.99,5.29-52.43h374.95C762.02-1399.02,754.48-1319.38,741.36-1239.87z"/>
		<path class="st3" d="M873.16-1333.78c-12.83,15.22-24.23,31.82-43.06,40.56c-4.28,1.98-8.86,3.27-13.29,4.88
			c-1.11-1.08-2.19-2.16-3.29-3.25c4.5-6.43,8.05-13.93,13.7-19.1c21.36-19.52,25.64-46.2,31.43-72.23c0.6-2.69-2.94-6.3-4.55-9.47
			c-2.67,2.19-6.25,3.84-7.84,6.62c-4.55,7.98-7.68,16.77-12.55,24.49c-2.56,4.05-7.55,6.55-11.45,9.75
			c-1.45-4.74-5.04-9.98-4.05-14.12c8.48-34.9,4.05-71.85,17.43-106.11c0.89-2.3,1.41-4.87,1.62-7.57h61.71
			c-0.65,19.67-2.55,39.47-0.65,58.89C901.54-1387.63,894.41-1359.03,873.16-1333.78z"/>
	</g>
</g>
<g id="_x32_CIV0p_11_">
	<g>
		<path class="st4" d="M346.1-1752.77c4.12,30.95,0.3,61.51-7.61,91.08c-14.64,54.66-31.06,108.85-47.53,163
			c-2.07,6.79-2.44,13.01-1.84,19.36h-62.93c-0.04-3.53-0.06-7.05-0.04-10.58c0.09-17.93,2.34-35.87,3.17-53.8
			c1.7-36.33,2.6-72.68,4.71-108.97c2-33.84,10.07-66.52,21.36-98.46c1.82-5.17,2.63-11.12,2.28-16.6
			c-1.28-20.07-0.95-39.89,0.83-59.5h107.99c-6.51,19.26-12.96,38.52-19.19,57.87C345.64-1764.22,345.39-1758.2,346.1-1752.77z"/>
		<path class="st4" d="M393.03-1613.86c3.41-36.43,2.97-73.47,1.15-110.07c-1.7-34.45-5.12-68.81-9.54-103.31h357.25
			c-2.32,16.31-4.48,32.63-5.4,49.02c-2.85,51.18-6.42,102.57-4.65,153.71c1.48,42.29,8.67,84.57,16.03,126.4
			c1.1,6.26,2.09,12.52,2.96,18.78H375.88C381.4-1524.18,388.8-1568.88,393.03-1613.86z"/>
		<path class="st4" d="M899.12-1484.62c-0.04,1.76-0.09,3.53-0.15,5.29h-61.71c0.49-6.25-0.65-13.18-2.56-18.85
			c-20.68-61.74-41.83-123.41-51.42-188.02c-3.45-23.16-1.52-47.12-2-70.71c-0.05-1.88,0.58-3.98,0-5.65
			c-7.26-21.59-14.6-43.14-22.62-64.68h109.02c1.88,20.64,2.11,41.49,0.42,62.61c-0.29,3.63,0.33,7.65,1.61,11.1
			c18.68,50.24,25.27,102.05,24.01,155.62c-0.69,30.1,3.93,60.34,5.84,90.53C900.04-1499.84,899.26-1492.2,899.12-1484.62z"/>
	</g>
</g>
<g id="_x32_CIV0p_10_">
	<g>
		<path class="st5" d="M867.68-1827.24H758.66c-3.94-10.59-8.04-21.17-12.38-31.74c-1.33,10.59-2.89,21.16-4.39,31.74H384.64
			c-1.55-12.18-3.24-24.37-5.01-36.59c-0.97,2.07-2.16,4.1-2.9,6.26c-3.41,10.11-6.84,20.22-10.24,30.33H258.5
			c3.18-35.01,10.97-69.35,22.46-103.2c2.65-7.77,4.1-16.3,4.26-24.51c0.62-32.28,2.76-64.29,13.06-95.22
			c14.97-44.97,42.4-76.38,91.35-85.4c9.54-1.77,18.99-6.18,27.43-11.19c15.4-9.11,30.43-18.85,45.56-28.4h199.19
			c15.79,9.21,31.1,19.34,47.06,28.23c9.57,5.34,20.03,10.31,30.68,12.28c37.91,7.04,63.21,29.37,79.65,62.91
			c17.1,34.91,20.32,72.59,21.84,110.72c0.46,11.98,2.32,24.3,5.98,35.68C857.4-1893.05,864.67-1860.42,867.68-1827.24z"/>
	</g>
</g>
<g id="_x32_CIV0p_9_">
	<g>
		<path class="st6" d="M501.82-2218.6c0.59-1.77-2.63-4.69-3.94-7.15c-4.55-8.64-9.47-17.1-13.4-25.98
			c-4.02-9.04-7.7-18.33-10.32-27.85c-3.34-12.04-10.79-26.46-7.09-36.3c9.04-23.92,1.45-47.44,4.14-70.85
			c1.57-13.79,6.53-25.91,16.7-35.61c40.17-38.24,106.69-38.06,146.21,0.53c10.62,10.39,15.8,23.45,16.17,38.17
			c0.25,10.71-0.19,21.45-0.53,32.19c-0.35,10.04-2.65,19.63,4.02,29.57c3.31,4.94,2.05,14.48,0.09,21.15
			c-5.98,20.49-12.69,40.79-20.37,60.7c-2.76,7.15-9.06,12.97-14.12,19.92c3.84,16.25,12.95,28.94,29.2,37.54
			c4.46,2.37,8.86,4.85,13.23,7.41H462.62c6.88-4.34,13.78-8.64,20.76-12.83C495.24-2195.12,498.05-2207.08,501.82-2218.6z"/>
	</g>
</g>
<line class="st0" x1="0" y1="-783.49" x2="1125" y2="-783.49"/>
<line class="st0" x1="0" y1="-1131.41" x2="1125" y2="-1131.41"/>
<line class="st0" x1="0" y1="-1479.33" x2="1125" y2="-1479.33"/>
<g id="_x32_CIV0p_4_">
	<g>
		<path class="st5" d="M312.49,1395.53c-0.92,0.97-1.87,1.93-2.79,2.92c-3.77-1.15-7.95-1.59-11.24-3.52
			c-33.96-20.19-57.48-49.2-68.47-87.01c-3.61-12.41-1.38-26.51-1.82-39.84c-0.52-16.78-1.38-33.56-1.79-50.33h64.34
			c4.2,20.34,7.13,40.92,10.64,61.39c1.68,9.77,3.61,19.52,5.17,29.31c0.9,5.66,1.91,11.41,1.68,17.09
			c-0.12,3.33-2.58,6.57-3.98,9.88c-3.08-1.86-7.33-2.96-8.97-5.65c-5.51-9.15-9.86-18.99-15.19-28.26
			c-1.66-2.85-5.09-4.71-7.71-7.01c-1.7,3.49-5.45,7.47-4.76,10.41c6.17,26.31,10.4,53.51,32.82,72.75
			C305.68,1382.19,308.53,1389.51,312.49,1395.53z"/>
		<path class="st5" d="M752.13,1217.75c9.25,76.9,1.8,153.2-10.77,229.38c-5.84,35.45-15.86,70.33-20,105.93
			c-4.19,35.98-4.78,72.57-4.21,108.85c0.25,15.57,8.33,30.86,11.31,46.56c9.78,51.46,2.88,102.32-7.61,152.77
			c-10.69,51.44-26.81,101.29-46.35,150.08c-11.61,28.95-20.83,58.5-13.36,90.53c1.03,4.44-0.74,9.93-2.35,14.53
			c-3.84,11.04-0.73,19.75,8.33,26.24c10.55,7.58,21.75,14.3,32.37,21.79c8.4,5.94,19.41,12.35,16.19,23.92
			c-3.08,11.19-15.77,10.96-25.5,11.22c-24.9,0.6-49.83,0.55-74.73,0.16c-16.72-0.25-28.33-11.73-28.26-29.85
			c0.07-20.62,0.6-41.55,4.07-61.8c11.45-66.64,8.46-133.69,7.22-200.67c-0.32-17.08-3.31-34.17-5.54-51.21
			c-6.9-52.4-1.06-104.02,10.32-155.11c5.11-22.88,4.86-44.93-4.55-66.36c-10.48-23.85-10.09-49.34-12.09-74.39
			c-7.59-94.71-14.51-189.46-21.71-284.2c-0.11-1.49-0.46-2.96-2.83-4.62c-1.06,12.46-2.16,24.93-3.15,37.41
			c-7.7,97.77-15.15,195.54-23.31,293.29c-0.92,11.19-4.76,22.37-8.69,33.04c-7.98,21.52-9.04,42.9-4.12,65.39
			c12.09,55.3,18.58,111.02,8.42,167.58c-2.3,12.71-3.68,25.82-3.55,38.72c0.72,57.81,1.43,115.61,3.59,173.37
			c1.04,27.85,6.49,55.53,7.8,83.38c1.24,26.05-10.05,36.12-35.92,36.17c-20.69,0.02-41.39,0.04-62.08-0.03
			c-3.84,0-8.12,0.6-11.38-0.85c-6.93-3.1-13.32-7.36-19.94-11.15c3.93-6.64,6.53-14.88,12.12-19.59
			c10.14-8.58,22.26-14.83,33.2-22.53c14.26-10.03,15.77-15.23,11.38-32.17c-1.03-4-2.3-8.58-1.4-12.4
			c7.33-30.78-1.27-59.36-12.37-87.26c-24.33-61-43.9-123.31-53.74-188.36c-7.82-51.55-10.55-102.92,8.97-153
			c2.02-5.17,1.98-11.31,2.09-17.01c1.11-53-4.39-104.9-15.72-157.14c-16.95-78.18-29.6-157.88-23.69-238.26
			c1.04-14.14,2.45-28.25,4.09-42.35H752.13z"/>
		<path class="st5" d="M873.16,1353.22c-12.83,15.22-24.23,31.82-43.06,40.56c-4.28,1.98-8.86,3.27-13.29,4.88
			c-1.11-1.08-2.19-2.16-3.29-3.25c4.5-6.43,8.05-13.93,13.7-19.1c21.36-19.52,25.64-46.2,31.43-72.23c0.6-2.69-2.94-6.3-4.55-9.47
			c-2.67,2.19-6.25,3.84-7.84,6.62c-4.55,7.98-7.68,16.77-12.55,24.49c-2.56,4.05-7.55,6.55-11.45,9.75
			c-1.45-4.74-5.04-9.98-4.05-14.12c8.27-34.05,4.26-70.05,16.49-103.6h63.86c-0.78,16.34-1.82,32.71-0.24,48.81
			C901.54,1299.37,894.41,1327.97,873.16,1353.22z"/>
	</g>
</g>
<polyline class="st0" points="1125,1217.75 898.56,1217.75 834.7,1217.75 752.13,1217.75 374.68,1217.75 290.72,1217.75 
	226.38,1217.75 0,1217.75 "/>
</svg>
